HIERARCHY
ROOT Hips
{
 OFFSET 0.000000 0.000000 0.000000
 CHANNELS 6 Xposition Yposition Zposition Yrotation Xrotation Zrotation
 JOINT Chest
 {
  OFFSET 0.000000 9.585900 0.002600
  CHANNELS 3 Yrotation Xrotation Zrotation
  JOINT Chest2
  {
   OFFSET 0.000000 9.601200 -0.005300
   CHANNELS 3 Yrotation Xrotation Zrotation
   JOINT Chest3
   {
    OFFSET 0.000000 9.561800 0.000000
    CHANNELS 3 Yrotation Xrotation Zrotation
    JOINT Chest4
    {
     OFFSET 0.000000 9.552100 0.000000
     CHANNELS 3 Yrotation Xrotation Zrotation
     JOINT Neck
     {
      OFFSET 0.000000 14.453000 0.000000
      CHANNELS 3 Yrotation Xrotation Zrotation
      JOINT Head
      {
       OFFSET 0.000000 8.936500 -0.011300
       CHANNELS 3 Yrotation Xrotation Zrotation
       End Site
       {
        OFFSET 0.000000 17.073600 -0.006000
       }
      }
     }
     JOINT RightCollar
     {
      OFFSET -2.921100 9.558500 0.000000
      CHANNELS 3 Yrotation Xrotation Zrotation
      JOINT RightShoulder
      {
       OFFSET -13.519700 0.000000 0.000000
       CHANNELS 3 Yrotation Xrotation Zrotation
       JOINT RightElbow
       {
        OFFSET 0.000000 -29.696600 0.000000
        CHANNELS 3 Yrotation Xrotation Zrotation
        JOINT RightWrist
        {
         OFFSET 0.000000 -24.004700 0.000000
         CHANNELS 3 Yrotation Xrotation Zrotation
         End Site
         {
          OFFSET 0.000000 -17.728500 0.000000
         }
        }
       }
      }
     }
     JOINT LeftCollar
     {
      OFFSET 2.921100 9.558500 0.000000
      CHANNELS 3 Yrotation Xrotation Zrotation
      JOINT LeftShoulder
      {
       OFFSET 13.519700 0.000000 0.000000
       CHANNELS 3 Yrotation Xrotation Zrotation
       JOINT LeftElbow
       {
        OFFSET 0.000000 -29.696600 0.000000
        CHANNELS 3 Yrotation Xrotation Zrotation
        JOINT LeftWrist
        {
         OFFSET 0.000000 -24.004700 0.000000
         CHANNELS 3 Yrotation Xrotation Zrotation
         End Site
         {
          OFFSET 0.000000 -17.728500 0.000000
         }
        }
       }
      }
     }
    }
   }
  }
 }
 JOINT RightHip
 {
  OFFSET -7.771700 -0.012900 -0.001300
  CHANNELS 3 Yrotation Xrotation Zrotation
  JOINT RightKnee
  {
   OFFSET 0.000000 -40.869800 0.001200
   CHANNELS 3 Yrotation Xrotation Zrotation
   JOINT RightAnkle
   {
    OFFSET 0.000000 -39.717900 0.002100
    CHANNELS 3 Yrotation Xrotation Zrotation
    JOINT RightToe
    {
     OFFSET 0.000000 -4.965400 11.033500
     CHANNELS 3 Yrotation Xrotation Zrotation
     End Site
     {
      OFFSET 0.000000 -1.423100 5.872300
     }
    }
   }
  }
 }
 JOINT LeftHip
 {
  OFFSET 7.771700 -0.012900 -0.001300
  CHANNELS 3 Yrotation Xrotation Zrotation
  JOINT LeftKnee
  {
   OFFSET 0.000000 -40.869800 0.001200
   CHANNELS 3 Yrotation Xrotation Zrotation
   JOINT LeftAnkle
   {
    OFFSET 0.000000 -39.717900 0.002100
    CHANNELS 3 Yrotation Xrotation Zrotation
    JOINT LeftToe
    {
     OFFSET 0.000000 -4.965400 11.033500
     CHANNELS 3 Yrotation Xrotation Zrotation
     End Site
     {
      OFFSET 0.000000 -1.423100 5.872300
     }
    }
   }
  }
 }
}
MOTION
Frames: 13
Frame Time: 0.008333
-230.958737 57.758443 23.316206 173.633755 -51.084262 -3.389437 4.505332 23.194118 3.687972 2.346333 13.290266 1.839266 3.021251 16.598597 2.404248 2.344754 13.289746 1.838889 0.681690 17.120937 2.871752 0.261549 -3.980357 5.075725 1.922780 2.993953 0.783300 0.193084 -17.561543 -11.799653 -118.957836 -64.001035 160.083698 23.678634 15.045217 -19.314833 -9.986116 0.663162 -0.747587 4.553977 -9.141148 13.343829 71.007211 -56.699899 -122.978020 -5.927589 -0.487770 -5.088653 6.389710 -20.809538 -0.136275 -40.182732 72.616608 -43.130508 4.282102 -13.291869 11.845970 -0.004259 0.016492 0.013330 -8.906937 -18.412695 10.198546 54.208801 81.797564 56.192258 -0.154734 -18.085743 -22.377370 0.000403 -0.009540 0.009586
-230.958626 57.758605 23.316666 173.634771 -51.084436 -3.389713 4.503649 23.193798 3.689066 2.344354 13.289500 1.840841 3.021789 16.599985 2.400306 2.342786 13.288987 1.838843 0.674521 17.121775 2.868740 0.264907 -3.979140 5.074393 1.933365 2.992873 0.784253 0.191806 -17.558044 -11.805126 -118.936613 -64.001680 160.066207 23.679179 15.040718 -19.315267 -9.980645 0.665569 -0.747038 4.553691 -9.141194 13.340277 71.037799 -56.707660 -122.985837 -5.940071 -0.458620 -5.108783 6.393493 -20.807020 -0.136916 -40.163987 72.617531 -43.105109 4.274854 -13.294280 11.839533 -0.003254 0.018925 0.012991 -8.907350 -18.412900 10.199179 54.207490 81.797554 56.190394 -0.149582 -18.085301 -22.380661 0.001869 -0.008597 0.010753
-230.958872 57.758854 23.317329 173.634905 -51.084421 -3.386968 4.503368 23.193726 3.690163 2.341519 13.289626 1.837836 3.020369 16.599415 2.400114 2.343457 13.289742 1.837368 0.653938 17.121996 2.863005 0.266353 -3.976037 5.068463 1.939962 2.990308 0.786050 0.193210 -17.553377 -11.811156 -118.930071 -64.001463 160.057911 23.679887 15.038647 -19.316884 -9.983852 0.675836 -0.746009 4.571780 -9.143584 13.329437 71.061346 -56.718495 -123.002683 -5.956141 -0.427851 -5.128399 6.396219 -20.805791 -0.139733 -40.154792 72.618449 -43.092656 4.271165 -13.297469 11.835120 -0.003050 0.022394 0.014537 -8.906101 -18.413718 10.199756 54.203010 81.795563 56.179754 -0.156599 -18.083546 -22.374788 0.005100 -0.009737 0.009733
-230.959698 57.759192 23.318125 173.630231 -51.084533 -3.377353 4.500332 23.193992 3.684877 2.342136 13.289796 1.835606 3.014007 16.599771 2.403501 2.344124 13.289239 1.829929 0.647141 17.124679 2.861723 0.234905 -3.973040 5.055949 1.946854 2.990328 0.786429 0.207094 -17.549600 -11.817567 -118.929853 -64.003719 160.048210 23.681893 15.035967 -19.319494 -9.979421 0.685696 -0.743458 4.591512 -9.143513 13.317209 71.068784 -56.726965 -123.021831 -5.988595 -0.367587 -5.171416 6.402703 -20.805017 -0.146215 -40.143541 72.620919 -43.078696 4.267538 -13.300081 11.829458 -0.004943 0.022665 0.014829 -8.903826 -18.415775 10.198016 54.237737 81.791647 56.202255 -0.170198 -18.083576 -22.365207 -0.004040 -0.010077 0.007695
-230.959947 57.759707 23.319196 173.634381 -51.084304 -3.378873 4.498136 23.193404 3.688601 2.335592 13.294227 1.837385 3.011904 16.599613 2.398349 2.342541 13.287108 1.830931 0.643392 17.125534 2.854760 0.212872 -3.969881 5.050103 1.964803 2.985133 0.781930 0.210751 -17.540373 -11.822127 -118.938420 -64.009751 160.046422 23.684293 15.028449 -19.322811 -9.976982 0.692147 -0.745825 4.615819 -9.139338 13.303684 71.095133 -56.730152 -123.044447 -6.006808 -0.331664 -5.221281 6.404005 -20.803922 -0.144177 -40.133355 72.615871 -43.067351 4.264407 -13.296095 11.825168 -0.004543 0.021193 0.016690 -8.908320 -18.416582 10.199011 54.242736 81.791356 56.202725 -0.164371 -18.082110 -22.373531 -0.001592 -0.009237 0.012950
-230.959741 57.759758 23.320956 173.629085 -51.079767 -3.376998 4.498954 23.192437 3.691639 2.335741 13.294240 1.835843 3.008793 16.600783 2.399206 2.341398 13.285085 1.831586 0.640467 17.124869 2.848523 0.182169 -3.964390 5.043568 1.976384 2.986303 0.778218 0.216357 -17.540559 -11.825815 -118.942939 -64.019434 160.046537 23.680663 15.017401 -19.328877 -9.978281 0.699800 -0.744377 4.646524 -9.137065 13.284967 71.121934 -56.737783 -123.066157 -6.013514 -0.310564 -5.261410 6.410670 -20.810204 -0.137972 -40.113543 72.614857 -43.046110 4.254268 -13.289085 11.822722 -0.001538 0.018684 0.016279 -8.906968 -18.420690 10.204277 54.241693 81.792973 56.200263 -0.167586 -18.084653 -22.375326 -0.002778 -0.009067 0.010604
-230.960910 57.759445 23.322910 173.623050 -51.071718 -3.367134 4.498033 23.189887 3.685054 2.336899 13.290501 1.835358 3.002616 16.604643 2.402091 2.343530 13.286333 1.829038 0.629419 17.124625 2.844011 0.164739 -3.960300 5.034615 1.979155 2.982722 0.777896 0.233208 -17.544994 -11.828828 -118.939953 -64.035465 160.028278 23.680578 15.002145 -19.333974 -9.984159 0.706988 -0.737849 4.678771 -9.133030 13.265517 71.161356 -56.743165 -123.097275 -6.020537 -0.288816 -5.305573 6.423113 -20.820759 -0.147003 -40.107960 72.617985 -43.035121 4.251803 -13.286357 11.820631 -0.000109 0.014124 0.011681 -8.900669 -18.430468 10.199685 54.202763 81.789060 56.155406 -0.167403 -18.078746 -22.367643 -0.005598 -0.007089 0.009732
-230.961506 57.759739 23.324491 173.621977 -51.067190 -3.364570 4.490721 23.188020 3.681526 2.335332 13.291519 1.835345 3.001553 16.608447 2.402940 2.332237 13.291830 1.835036 0.625699 17.120291 2.826421 0.149763 -3.954299 5.022434 1.995276 2.973306 0.761791 0.235465 -17.546366 -11.828785 -118.918810 -64.051290 160.014237 23.672514 14.988126 -19.347497 -9.976428 0.704295 -0.746237 4.716776 -9.129753 13.250881 71.194193 -56.751294 -123.130078 -6.053185 -0.242087 -5.378447 6.426124 -20.825043 -0.149795 -40.092008 72.619738 -43.017448 4.244928 -13.284564 11.819304 0.005636 0.013133 0.010733 -8.895483 -18.434566 10.200230 54.167482 81.787936 56.120944 -0.165097 -18.077122 -22.365885 -0.014466 -0.004605 0.006784
-230.961904 57.759867 23.326131 173.624606 -51.060461 -3.365996 4.485909 23.188207 3.683275 2.327362 13.299401 1.838276 3.000773 16.602009 2.397585 2.333330 13.288889 1.830929 0.613819 17.125542 2.821951 0.134979 -3.950071 5.008951 1.995685 2.974764 0.760829 0.240913 -17.551332 -11.831367 -118.914065 -64.056014 160.010840 23.668013 14.986599 -19.350136 -9.979729 0.707950 -0.746518 4.748860 -9.125319 13.239168 71.236934 -56.763724 -123.140640 -6.068112 -0.202394 -5.463611 6.425625 -20.831220 -0.151724 -40.077043 72.621740 -43.001948 4.249728 -13.286049 11.820443 -0.002367 0.012933 0.006007 -8.895914 -18.442694 10.200739 54.165488 81.786329 56.119662 -0.159111 -18.073928 -22.366960 -0.015227 -0.003805 0.004831
-230.962129 57.760434 23.327195 173.629276 -51.056488 -3.369287 4.477700 23.197016 3.686750 2.325600 13.294334 1.836055 2.996847 16.603145 2.397192 2.333523 13.285475 1.826439 0.600905 17.131400 2.817863 0.130205 -3.949873 4.995172 2.002085 2.978662 0.755560 0.239851 -17.561335 -11.827850 -118.902011 -64.062245 160.000793 23.666675 14.987192 -19.351850 -9.977090 0.706204 -0.750216 4.796330 -9.088982 13.225814 71.298154 -56.785478 -123.206624 -6.079990 -0.171322 -5.525073 6.428999 -20.833074 -0.147851 -40.088795 72.617275 -43.009580 4.242956 -13.285773 11.819147 0.000901 0.013389 0.008506 -8.898543 -18.450153 10.200638 54.176650 81.783366 56.130924 -0.157413 -18.067542 -22.366766 -0.010213 -0.006242 0.003195
-230.962074 57.761050 23.327901 173.630232 -51.052796 -3.370729 4.471135 23.200898 3.691552 2.323017 13.294609 1.834173 2.993066 16.605128 2.396213 2.323043 13.294610 1.834215 0.597998 17.122434 2.795869 0.136490 -3.953981 4.988331 2.022156 2.966578 0.732469 0.226724 -17.569261 -11.817940 -118.873261 -64.069496 159.982311 23.669983 14.987621 -19.352380 -9.965854 0.701236 -0.764972 4.809623 -9.097759 13.219450 71.318236 -56.787622 -123.201765 -6.098884 -0.144199 -5.575789 6.429328 -20.836737 -0.145965 -40.092736 72.616403 -43.013076 4.251387 -13.288604 11.813706 0.001905 0.012632 0.010617 -8.899178 -18.456401 10.203748 54.195248 81.781962 56.151534 -0.162637 -18.064965 -22.368014 -0.002844 -0.009730 0.002616
-230.963064 57.761301 23.328299 173.619689 -51.046789 -3.356579 4.469917 23.199806 3.687076 2.318751 13.296664 1.833236 2.994547 16.603743 2.393443 2.316680 13.297856 1.836352 0.590201 17.127077 2.787847 0.126244 -3.955635 4.970999 2.032304 2.961150 0.722526 0.216653 -17.570765 -11.810197 -118.845076 -64.082115 159.953702 23.675271 14.976058 -19.345595 -9.967223 0.702999 -0.767153 4.849401 -9.089999 13.203622 71.335377 -56.799296 -123.217110 -6.108792 -0.131680 -5.614873 6.438671 -20.842976 -0.151441 -40.088532 72.619680 -43.010281 4.244906 -13.289754 11.812443 0.001494 0.011970 0.010812 -8.890420 -18.462982 10.198237 54.217158 81.781349 56.175300 -0.167606 -18.068168 -22.369184 -0.004440 -0.010763 0.002011
-230.963215 57.761823 23.328166 173.614612 -51.042766 -3.351291 4.467480 23.200959 3.685077 2.316853 13.296764 1.832542 2.995471 16.602458 2.393706 2.311446 13.299305 1.835415 0.584849 17.129831 2.782795 0.118233 -3.954219 4.954226 2.026712 2.958098 0.718933 0.220141 -17.567699 -11.798322 -118.851550 -64.093128 159.963131 23.674298 14.973777 -19.337790 -9.971392 0.704271 -0.764883 4.912721 -9.061843 13.172377 71.366227 -56.830785 -123.267804 -6.114715 -0.117726 -5.653948 6.442485 -20.847171 -0.151793 -40.076627 72.622721 -43.001406 4.231972 -13.288197 11.810933 -0.001603 0.010752 0.012168 -8.886431 -18.465834 10.195885 54.227351 81.780246 56.188964 -0.165208 -18.069426 -22.375265 -0.003552 -0.011637 0.003277
